<svg width="32" height="32" viewBox="0 0 32 32" fill="none">
  <path
    d="M8.06944 5.18271C11.2794 7.62685 14.7326 12.5819 16 15.241V22.2643C16 22.1148 15.9431 22.2837 15.8206 22.6477C15.1591 24.6182 12.5752 32.3088 6.66681 26.1607C3.55575 22.9236 4.996 19.6866 10.659 18.7093C7.41931 19.2682 3.77712 18.3444 2.77787 14.7227C2.49 13.6808 2 7.26335 2 6.3966C2 2.0549 5.75331 3.41959 8.06944 5.18271ZM23.9306 5.18271C20.7206 7.62685 17.2674 12.5819 16 15.241V22.2643C16 22.1148 16.0569 22.2837 16.1794 22.6477C16.8409 24.6182 19.4248 32.3088 25.3332 26.1607C28.4443 22.9236 27.004 19.6866 21.341 18.7093C24.5807 19.2682 28.2229 18.3444 29.2221 14.7227C29.51 13.6808 30 7.26335 30 6.3966C30 2.0549 26.2471 3.41959 23.9306 5.18271Z"
    fill="currentColor"
  />
</svg>
