<svg width="24" height="24" viewBox="0 0 24 24" fill="none">
  <path
    d="M3.7998 15.3573L11 20.1357V15.8954L7 13.205L3.7998 15.3573ZM13 15.8954V20.1357L20.1992 15.3573L17 13.205L13 15.8954ZM8.79102 11.9999L12 14.1581L15.208 11.9999L12 9.84073L8.79102 11.9999ZM3 13.4853L5.20801 11.9999L3 10.5136V13.4853ZM18.791 11.9999L21 13.4853V10.5136L18.791 11.9999ZM3.7998 8.64151L7 10.7939L11 8.10343V3.86319L3.7998 8.64151ZM13 8.10343L17 10.7939L20.1992 8.64151L13 3.86319V8.10343ZM23 15.3632C23 15.6983 22.8319 16.0119 22.5527 16.1972L12.5527 22.8329C12.2177 23.0553 11.7823 23.0553 11.4473 22.8329L1.44727 16.1972C1.16806 16.0119 1 15.6983 1 15.3632V8.63663C1 8.30153 1.16806 7.98794 1.44727 7.80265L11.4473 1.1669L11.5771 1.09366C11.8896 0.947795 12.2596 0.972378 12.5527 1.1669L22.5527 7.80265C22.8319 7.98794 23 8.30153 23 8.63663V15.3632Z"
    fill="currentColor"
  />
</svg>
