<svg width="32" height="32" viewBox="0 0 32 32" fill="none">
  <path
    d="M16.0002 1.3335C7.89683 1.3335 1.3335 7.89683 1.3335 16.0002C1.3335 22.4902 5.53183 27.9718 11.3618 29.9151C12.0952 30.0435 12.3702 29.6035 12.3702 29.2184C12.3702 28.8702 12.3518 27.7151 12.3518 26.4868C8.66683 27.1651 7.7135 25.5884 7.42016 24.7635C7.25516 24.3418 6.54016 23.0402 5.91683 22.6918C5.4035 22.4168 4.67016 21.7384 5.8985 21.7202C7.0535 21.7018 7.8785 22.7835 8.1535 23.2235C9.4735 25.4418 11.5818 24.8184 12.4252 24.4335C12.5535 23.4802 12.9385 22.8384 13.3602 22.4718C10.0968 22.1051 6.68683 20.8402 6.68683 15.2302C6.68683 13.6351 7.25516 12.3152 8.19016 11.2885C8.0435 10.9218 7.53016 9.4185 8.33683 7.40183C8.33683 7.40183 9.56516 7.01683 12.3702 8.90516C13.5435 8.57516 14.7902 8.41016 16.0368 8.41016C17.2835 8.41016 18.5302 8.57516 19.7035 8.90516C22.5086 6.9985 23.7368 7.40183 23.7368 7.40183C24.5435 9.4185 24.0302 10.9218 23.8835 11.2885C24.8186 12.3152 25.3868 13.6168 25.3868 15.2302C25.3868 20.8584 21.9586 22.1051 18.6952 22.4718C19.2268 22.9302 19.6852 23.8102 19.6852 25.1851C19.6852 27.1468 19.6668 28.7235 19.6668 29.2184C19.6668 29.6035 19.9419 30.0618 20.6752 29.9151C26.4686 27.9718 30.6668 22.4718 30.6668 16.0002C30.6668 7.89683 24.1035 1.3335 16.0002 1.3335Z"
    fill="currentColor"
  />
</svg>
