<svg width="24" height="24" viewBox="0 0 24 24" fill="none">
  <path
    d="M6 8.01172V21.375H2V8.01172H6ZM12.6377 10.1162C13.0817 9.43949 13.6937 8.8895 14.4141 8.52051C15.1344 8.15156 15.9385 7.97659 16.7471 8.01172C21.0658 8.01172 22 10.7112 22 14.2236V21.375H18V15.0352C18 13.5227 17.6948 11.5771 15.3398 11.5771C13.0562 11.5772 12.666 13.2241 12.666 14.9229V21.375H8.67871V7.99512H12.6377V10.1162ZM4 2.625C4.26314 2.62516 4.52361 2.67735 4.7666 2.77832C5.00958 2.87932 5.23028 3.02749 5.41602 3.21387C5.6018 3.40035 5.74948 3.62179 5.84961 3.86523C5.94968 4.10862 6.00082 4.36965 6 4.63281C5.99945 5.02896 5.88175 5.41641 5.66211 5.74609C5.44242 6.07572 5.13002 6.33329 4.76465 6.48633C4.3994 6.63807 3.99724 6.67803 3.60938 6.60059C3.22139 6.52312 2.86496 6.33128 2.58594 6.05078C2.3067 5.77026 2.11623 5.41361 2.03906 5.02539C1.96191 4.63684 2.00125 4.23337 2.15234 3.86719C2.30345 3.50108 2.56003 3.18784 2.88867 2.9668C3.21733 2.74581 3.60396 2.62688 4 2.625Z"
    fill="currentColor"
  />
</svg>
